<svg xmlns="http://www.w3.org/2000/svg" viewBox="0 0 16 16" fill="none"><g clip-path="url(#clip0_1_7774)"><path d="M15.9281 15.5719L11.2656 10.9094C12.3375 9.75313 12.9719 8.20625 12.9719 6.5C12.9719 2.90937 10.0616 0 6.47188 0C2.88219 0 0 2.91031 0 6.5C0 10.0897 2.91001 13 6.47188 13C8.17657 13 9.72501 12.3384 10.8844 11.2644L15.5469 15.9269C15.6219 15.975 15.6844 16 15.7219 16C15.7594 16 15.8498 15.9756 15.8986 15.9268C16.025 15.8281 16.025 15.6719 15.9281 15.5719ZM6.47188 12.5C3.16251 12.5 0.471881 9.80844 0.471881 6.5C0.471881 3.19156 3.16344 0.5 6.47188 0.5C9.78032 0.5 12.4719 3.19156 12.4719 6.5C12.4719 9.80844 9.80938 12.5 6.47188 12.5Z" fill="white"></path></g><defs><clipPath id="clip0_1_7774"><rect width="16" height="16" fill="white"></rect></clipPath></defs></svg>